# xmcd
#
# Track frame offsets: 
#        150
#        17565
#        32705
#        42268
#        59023
#        74925
#        88833
#        106248
#        122860
#        140003
#        171510
#
# Disc length: 2955 seconds
#
# Revision: 0
# Processed by: cddbd v1.5.2PL0 Copyright (c) Steve Scherf et al.
# Submitted via: ExactAudioCopyFreeDBPlugin 1.0
#
DISCID=a90b890b
DTITLE=Adele - 19 - Acoustic Set Live From The Hotel Cafe, Los Angeles
DYEAR=2008
DGENRE=Soul
TTITLE0=Chasing Pavements
TTITLE1=Melt My Heart To Stone
TTITLE2=That’s It, I Quit, I’m Moving On
TTITLE3=Crazy For You
TTITLE4=Right As Rain
TTITLE5=My Same
TTITLE6=Make You Feel My Love
TTITLE7=Daydreamer
TTITLE8=Hometown Glory
TTITLE9=Many Shades Of Black (Performed By Adele And The Raconteurs)
TTITLE10=[data track]
EXTD=Disc name: Acoustic Set Live From The Hotel Cafe, Los Angeles\nBa
EXTD=rcode: 634904631321\nRelease date: 2008-11-17\nRelease country: F
EXTD=R\nRelease date: 2008-11-17\nRelease country: GB\nRelease label: 
EXTD=XL Recordings\nRelease catalog#: XLCD313X\n
EXTT0=
EXTT1=
EXTT2=
EXTT3=
EXTT4=
EXTT5=
EXTT6=
EXTT7=
EXTT8=
EXTT9=
EXTT10=
PLAYORDER=
